<svg width="36" height="36" viewBox="0 0 36 36" fill="none" xmlns="http://www.w3.org/2000/svg">
<circle cx="17.7083" cy="17.7088" r="17.5347" fill="white" stroke="#00007E" stroke-width="0.347222"/>
<path d="M17.7083 34.3306C26.8885 34.3306 34.3306 26.8885 34.3306 17.7083C32.0527 15.6496 25.2807 11.4893 19.075 10.4314C19.9201 10.2804 21.1131 10.0387 22.4364 9.72662C22.7739 9.64703 23.1199 9.56286 23.4707 9.47445C24.1143 9.31227 24.7743 9.13581 25.4284 8.94718C25.7046 8.86753 25.9798 8.7857 26.2522 8.70187C26.9398 8.49026 27.6099 8.26581 28.2358 8.03105C28.5164 7.92579 28.7881 7.81845 29.0484 7.70927C29.568 7.49138 30.0423 7.26615 30.4521 7.03537C30.2828 6.83345 30.1088 6.63561 29.9303 6.44203C28.3372 7.69794 18.3732 10.2467 13.091 11.3918C8.86519 12.3079 3.59776 16.1322 1.49226 17.9299C3.14218 15.8737 7.7201 11.4583 12.8324 10.2467C19.2228 8.73221 25.9086 5.87902 27.3492 4.16584C26.9669 3.89319 26.5726 3.63633 26.1672 3.3962C24.3203 4.74392 19.0085 7.86785 12.5369 9.5818C6.06525 11.2957 2.20641 15.7136 1.08594 17.7083C1.08594 26.8885 8.52801 34.3306 17.7083 34.3306Z" fill="white"/>
<path d="M19.8507 1.22273C18.6687 2.7778 15.0487 6.66366 10.0251 9.76649C13.485 8.06344 20.6264 4.03054 21.5129 1.52338C20.9687 1.39593 20.4141 1.29523 19.8507 1.22273Z" fill="white"/>
<path fill-rule="evenodd" clip-rule="evenodd" d="M34.3216 17.1542C34.2729 15.6683 34.0292 14.2318 33.6153 12.8693C31.3419 12.0892 26.5218 10.2125 25.4284 8.94718C24.7743 9.13581 24.1143 9.31227 23.4707 9.47445C25.8164 10.446 31.2706 13.3421 34.3216 17.1542ZM32.3729 9.87499C32.7531 10.5853 33.0832 11.3264 33.3585 12.0936C31.5169 11.739 27.8536 9.6847 26.2522 8.70187C26.9398 8.49026 27.6099 8.26581 28.2358 8.03105C29.0853 8.58336 31.1022 9.72539 32.3729 9.87499ZM31.837 8.94718C31.4203 8.27656 30.9571 7.63779 30.4521 7.03537C30.0423 7.26615 29.568 7.49138 29.0484 7.70927C29.5654 8.1219 30.8468 8.94718 31.837 8.94718ZM22.4364 9.72662C25.6279 10.2857 31.6957 15.2807 34.3306 17.7083C32.0527 15.6496 25.2807 11.4893 19.075 10.4314C19.9201 10.2804 21.1131 10.0387 22.4364 9.72662ZM17.7083 1.08594C8.52801 1.08594 1.08594 8.52801 1.08594 17.7083C2.20641 15.7136 6.06525 11.2957 12.5369 9.5818C19.0085 7.86785 24.3203 4.74392 26.1672 3.3962C24.7394 2.5505 23.1741 1.91237 21.5129 1.52338C20.6264 4.03054 13.485 8.06344 10.0251 9.76649C15.0487 6.66366 18.6687 2.7778 19.8507 1.22273C19.1493 1.13247 18.4342 1.08594 17.7083 1.08594ZM27.3492 4.16584C28.2866 4.83435 29.1516 5.59776 29.9303 6.44203C28.3372 7.69794 18.3732 10.2467 13.091 11.3918C8.86519 12.3079 3.59776 16.1322 1.49226 17.9299C3.14218 15.8737 7.7201 11.4583 12.8324 10.2467C19.2228 8.73221 25.9086 5.87902 27.3492 4.16584Z" fill="url(#paint0_linear_159_321)"/>
<path d="M22.4364 9.72662C25.6279 10.2857 31.6957 15.2807 34.3306 17.7083C34.3306 17.5229 34.3276 17.3382 34.3216 17.1542C31.2706 13.3421 25.8164 10.446 23.4707 9.47445C23.1199 9.56286 22.7739 9.64703 22.4364 9.72662Z" fill="white"/>
<path d="M25.4284 8.94718C26.5218 10.2125 31.3419 12.0892 33.6153 12.8693C33.5359 12.608 33.4502 12.3493 33.3585 12.0936C31.5169 11.739 27.8536 9.6847 26.2522 8.70187C25.9798 8.7857 25.7046 8.86753 25.4284 8.94718Z" fill="white"/>
<path d="M28.2358 8.03105C29.0853 8.58336 31.1022 9.72539 32.3729 9.87499C32.204 9.5595 32.0252 9.25009 31.837 8.94718C30.8468 8.94718 29.5654 8.1219 29.0484 7.70927C28.7881 7.81845 28.5164 7.92579 28.2358 8.03105Z" fill="white"/>
<path d="M15.5663 34.1933C16.7483 32.6382 20.3683 28.7524 25.3919 25.6495C21.932 27.3526 14.7906 31.3855 13.904 33.8926C14.4483 34.0201 15.0029 34.1208 15.5663 34.1933Z" fill="white"/>
<path d="M12.9806 25.6894C9.78909 25.1303 3.72132 20.1353 1.08637 17.7077C1.08637 17.8932 1.08941 18.0779 1.09543 18.2618C4.14642 22.0739 9.60059 24.97 11.9463 25.9416C12.2971 25.8532 12.6431 25.769 12.9806 25.6894Z" fill="white"/>
<path d="M9.98856 26.4688C8.89518 25.2035 4.07508 23.3268 1.8017 22.5467C1.8811 22.808 1.96677 23.0667 2.05853 23.3224C3.90008 23.677 7.56337 25.7313 9.16482 26.7141C9.43723 26.6303 9.71237 26.5485 9.98856 26.4688Z" fill="white"/>
<path fill-rule="evenodd" clip-rule="evenodd" d="M1.09543 18.2618C1.1441 19.7477 1.38778 21.1842 1.8017 22.5467C4.07508 23.3268 8.89518 25.2035 9.98856 26.4688C10.6427 26.2802 11.3027 26.1037 11.9463 25.9416C9.60059 24.97 4.14642 22.0739 1.09543 18.2618ZM3.04411 25.541C2.66392 24.8307 2.33381 24.0896 2.05853 23.3224C3.90008 23.677 7.56337 25.7313 9.16482 26.7141C8.47724 26.9258 7.80705 27.1502 7.18123 27.385C6.33164 26.8327 4.3148 25.6906 3.04411 25.541ZM3.57999 26.4688C3.99671 27.1395 4.45985 27.7782 4.96492 28.3806C5.37471 28.1499 5.84904 27.9246 6.36858 27.7067C5.85162 27.2941 4.57015 26.4688 3.57999 26.4688ZM12.9806 25.6894C9.78909 25.1303 3.72132 20.1353 1.08637 17.7077C3.36425 19.7665 10.1363 23.9267 16.342 24.9846C15.4969 25.1356 14.3039 25.3773 12.9806 25.6894ZM17.7087 34.3301C26.889 34.3301 34.3311 26.888 34.3311 17.7077C33.2106 19.7024 29.3517 24.1203 22.8801 25.8342C16.4085 27.5482 11.0967 30.6721 9.24979 32.0198C10.6776 32.8655 12.2429 33.5036 13.904 33.8926C14.7906 31.3855 21.932 27.3526 25.3919 25.6495C20.3683 28.7524 16.7483 32.6382 15.5663 34.1933C16.2677 34.2835 16.9828 34.3301 17.7087 34.3301ZM8.06775 31.2502C7.1304 30.5817 6.26538 29.8183 5.48674 28.974C7.07978 27.7181 17.0438 25.1693 22.326 24.0242C26.5518 23.1082 31.8192 19.2838 33.9247 17.4861C32.2748 19.5424 27.6969 23.9577 22.5846 25.1693C16.1942 26.6838 9.50836 29.537 8.06775 31.2502Z" fill="url(#paint1_linear_159_321)"/>
<path d="M7.18123 27.385C6.33164 26.8327 4.3148 25.6906 3.04411 25.541C3.21299 25.8565 3.39175 26.1659 3.57999 26.4688C4.57015 26.4688 5.85162 27.2941 6.36858 27.7067C6.62892 27.5976 6.90062 27.4902 7.18123 27.385Z" fill="white"/>
<path d="M14.0149 13.792L15.6144 14.7155V16.5624L14.0149 17.4858L12.4154 16.5624V14.7155L14.0149 13.792Z" fill="#00007E"/>
<path d="M17.7083 11.6504L19.3077 12.5739V14.4208L17.7083 15.3442L16.1088 14.4208V12.5739L17.7083 11.6504Z" fill="#00007E"/>
<path d="M17.7083 20.1465L19.3077 21.0699V22.9169L17.7083 23.8403L16.1088 22.9169V21.0699L17.7083 20.1465Z" fill="#00007E"/>
<path d="M14.0149 18.0039L15.6144 18.9274V20.7743L14.0149 21.6978L12.4154 20.7743V18.9274L14.0149 18.0039Z" fill="#00007E"/>
<path d="M21.4023 18.0039L23.0018 18.9274V20.7743L21.4023 21.6978L19.8029 20.7743V18.9274L21.4023 18.0039Z" fill="#00007E"/>
<path d="M21.4023 13.792L23.0018 14.7155V16.5624L21.4023 17.4858L19.8029 16.5624V14.7155L21.4023 13.792Z" fill="#00007E"/>
<path d="M18.0504 21.7713C18.0504 21.9753 17.885 22.1406 17.681 22.1406C17.477 22.1406 17.3117 21.9753 17.3117 21.7713C17.3117 21.6504 17.3697 21.5431 17.4594 21.4757L17.4594 18.0919L14.5289 19.7838C14.5154 19.8952 14.4515 19.9991 14.3469 20.0595C14.1702 20.1615 13.9443 20.101 13.8423 19.9243C13.7403 19.7477 13.8008 19.5217 13.9775 19.4197C14.0821 19.3593 14.2041 19.3559 14.3073 19.3999L17.2378 17.708L14.3073 16.0161C14.2041 16.0601 14.0821 16.0567 13.9775 15.9963C13.8008 15.8943 13.7403 15.6684 13.8423 15.4917C13.9443 15.315 14.1702 15.2545 14.3469 15.3565C14.4515 15.4169 14.5154 15.5208 14.5289 15.6322L17.4594 17.3241L17.4594 13.9403C17.3697 13.8729 17.3117 13.7656 17.3117 13.6448C17.3117 13.4408 17.477 13.2754 17.681 13.2754C17.885 13.2754 18.0504 13.4408 18.0504 13.6448C18.0504 13.7656 17.9924 13.8729 17.9027 13.9403L17.9027 17.3241L20.8332 15.6322C20.8467 15.5208 20.9106 15.4169 21.0152 15.3565C21.1919 15.2545 21.4178 15.315 21.5198 15.4917C21.6218 15.6684 21.5613 15.8943 21.3846 15.9963C21.2799 16.0567 21.158 16.0601 21.0548 16.0161L18.1243 17.708L21.0548 19.3999C21.158 19.3559 21.2799 19.3593 21.3846 19.4197C21.5613 19.5217 21.6218 19.7477 21.5198 19.9243C21.4178 20.101 21.1919 20.1615 21.0152 20.0595C20.9106 19.9991 20.8467 19.8952 20.8332 19.7838L17.9027 18.0919V21.4757C17.9924 21.5431 18.0504 21.6504 18.0504 21.7713Z" fill="white"/>
<path d="M18.0504 21.7713C18.0504 21.9753 17.885 22.1406 17.681 22.1406C17.477 22.1406 17.3117 21.9753 17.3117 21.7713C17.3117 21.6504 17.3697 21.5431 17.4594 21.4757L17.4594 18.0919L14.5289 19.7838C14.5154 19.8952 14.4515 19.9991 14.3469 20.0595C14.1702 20.1615 13.9443 20.101 13.8423 19.9243C13.7403 19.7477 13.8008 19.5217 13.9775 19.4197C14.0821 19.3593 14.2041 19.3559 14.3073 19.3999L17.2378 17.708L14.3073 16.0161C14.2041 16.0601 14.0821 16.0567 13.9775 15.9963C13.8008 15.8943 13.7403 15.6684 13.8423 15.4917C13.9443 15.315 14.1702 15.2545 14.3469 15.3565C14.4515 15.4169 14.5154 15.5208 14.5289 15.6322L17.4594 17.3241L17.4594 13.9403C17.3697 13.8729 17.3117 13.7656 17.3117 13.6448C17.3117 13.4408 17.477 13.2754 17.681 13.2754C17.885 13.2754 18.0504 13.4408 18.0504 13.6448C18.0504 13.7656 17.9924 13.8729 17.9027 13.9403L17.9027 17.3241L20.8332 15.6322C20.8467 15.5208 20.9106 15.4169 21.0152 15.3565C21.1919 15.2545 21.4178 15.315 21.5198 15.4917C21.6218 15.6684 21.5613 15.8943 21.3846 15.9963C21.2799 16.0567 21.158 16.0601 21.0548 16.0161L18.1243 17.708L21.0548 19.3999C21.158 19.3559 21.2799 19.3593 21.3846 19.4197C21.5613 19.5217 21.6218 19.7477 21.5198 19.9243C21.4178 20.101 21.1919 20.1615 21.0152 20.0595C20.9106 19.9991 20.8467 19.8952 20.8332 19.7838L17.9027 18.0919V21.4757C17.9924 21.5431 18.0504 21.6504 18.0504 21.7713Z" fill="#40E0D0" fill-opacity="0.75"/>
<circle cx="17.7083" cy="17.709" r="1.47754" fill="#00007E"/>
<defs>
<linearGradient id="paint0_linear_159_321" x1="17.7083" y1="1.08594" x2="17.7083" y2="34.3306" gradientUnits="userSpaceOnUse">
<stop stop-color="#F18F26"/>
<stop offset="0.302885" stop-color="#E85E25"/>
</linearGradient>
<linearGradient id="paint1_linear_159_321" x1="17.7087" y1="1.0854" x2="17.7087" y2="34.3301" gradientUnits="userSpaceOnUse">
<stop offset="0.822115" stop-color="#52A241"/>
<stop offset="1" stop-color="#20773D"/>
</linearGradient>
</defs>
</svg>
